<svg width="1442" height="405" viewBox="0 0 1442 405" xmlns="http://www.w3.org/2000/svg">
  <defs>
    <linearGradient x1="50%" y1="-127.414%" x2="50%" y2="87.223%" id="a">
      <stop stop-color="#800" offset="0%"/>
      <stop stop-color="#111" offset="100%"/>
    </linearGradient>
  </defs>
  <g fill="none" fill-rule="evenodd">
    <path d="M0 151c15.34 0 15.34-32.223 30.68-32.223 15.341 0 15.341-69.88 30.682-69.88 15.34 0 15.34 34.322 30.68 34.322 15.341 0 15.341-72.4 30.681-72.4 15.34 0 15.34 23.94 30.681 23.94 15.34 0 10.256 42.579 25.596 42.579s20.426 89.162 35.766 89.162 15.34-117.496 30.68-117.496c15.341 0 15.341 85.062 30.682 85.062 15.34 0 15.34-56.728 30.68-56.728s6.352 29.216 21.692 29.216S352.83 1.787 368.17 1.787c15.34 0 15.34 11.118 30.681 11.118 15.34 0 15.34 64.433 30.68 64.433 15.341 0 15.341 59.89 30.682 59.89 15.34 0 15.34-68.614 30.68-68.614 15.341 0 15.341-57.795 30.681-57.795 15.34 0 15.34 17.682 30.681 17.682 15.34 0 15.34 26.131 30.681 26.131 15.34 0 15.34 62.738 30.681 62.738 15.34 0 15.34 24.92 30.68 24.92 15.341 0 15.341-2.475 30.682-2.475 15.34 0 15.34 89.532 30.68 89.532C721 229.347 721 187 736.34 187c15.34 0 15.34 61.187 30.681 61.187 15.34 0 15.34-11.638 30.681-11.638 15.34 0 15.34-61.69 30.681-61.69 15.34 0 15.34-56.34 30.68-56.34 15.341 0 15.341-41.181 30.682-41.181 15.34 0 15.34-48.837 30.68-48.837 15.341 0 15.341 20.503 30.681 20.503 15.34 0 15.34-47.324 30.681-47.324 15.34 0 15.34 75.826 30.681 75.826 15.34 0 15.34-51.587 30.68-51.587C1058.49 25.919 1058.49 0 1073.83 0c15.34 0 15.34 8.314 30.68 8.314 15.341 0 15.341 26.37 30.681 26.37 15.34 0 15.34-11.192 30.681-11.192 15.34 0 15.34 31.14 30.681 31.14 15.34 0 15.34-52.952 30.681-52.952 15.34 0 15.34 104.874 30.68 104.874 15.341 0 15.341-80.635 30.682-80.635 15.34 0 15.34 57.3 30.68 57.3 15.341 0 15.341-37.03 30.681-37.03 15.34 0 15.34 37.211 30.681 37.211 15.34 0 15.34-37.21 30.681-37.21 15.34 0 15.34 105.18 30.681 105.18v248.082a5.547 5.547 0 0 1-5.546 5.548H5.546A5.547 5.547 0 0 1 0 399.452V151z" fill="url(#a)" fill-rule="nonzero" opacity=".545" transform="matrix(-1 0 0 1 1442 0)"/>
    <path d="M1442 153c-15.34 0-15.34-33.63-30.68-33.63-15.341 0-15.341-68.366-30.682-68.366-15.34 0-15.34 34.396-30.68 34.396-15.341 0-15.341-72.558-30.681-72.558-15.34 0-15.34 23.842-30.681 23.842-15.34 0-10.256 42.822-25.596 42.822s-20.426 88.994-35.766 88.994-15.34-120.31-30.68-120.31c-15.341 0-15.341 87.876-30.682 87.876-15.34 0-15.34-56.56-30.68-56.56s-6.352 29.28-21.692 29.28S1089.17 3.79 1073.83 3.79c-15.34 0-15.34 11.143-30.681 11.143-15.34 0-15.34 64.573-30.68 64.573-15.341 0-15.341 60.02-30.682 60.02-15.34 0-15.34-68.763-30.68-68.763-15.341 0-15.341-57.92-30.681-57.92-15.34 0-15.34 17.72-30.681 17.72-15.34 0-15.34 26.188-30.681 26.188-15.34 0-15.34 62.874-30.681 62.874-15.34 0-15.34 24.974-30.68 24.974-15.341 0-15.341-2.48-30.682-2.48-15.34 0-15.34 88.73-30.68 88.73C721 230.85 721 189 705.66 189c-15.34 0-15.34 61.727-30.681 61.727-15.34 0-15.34-11.664-30.681-11.664-15.34 0-15.34-61.823-30.681-61.823-15.34 0-15.34-56.463-30.68-56.463-15.341 0-15.341-41.271-30.682-41.271-15.34 0-15.34-48.943-30.68-48.943-15.341 0-15.341 20.44-30.681 20.44-15.34 0-15.34-47.32-30.681-47.32-15.34 0-15.34 75.823-30.681 75.823-15.34 0-15.34-52.754-30.68-52.754C383.51 26.752 383.51 2 368.17 2c-15.34 0-15.34 8.332-30.68 8.332-15.341 0-15.341 26.427-30.681 26.427-15.34 0-15.34-11.216-30.681-11.216-15.34 0-15.34 31.208-30.681 31.208-15.34 0-15.34-52.96-30.681-52.96-15.34 0-15.34 104.995-30.68 104.995-15.341 0-15.341-80.811-30.682-80.811-15.34 0-15.34 57.425-30.68 57.425-15.341 0-15.341-36.662-30.681-36.662-15.34 0-15.34 36.481-30.681 36.481-15.34 0-15.34-36.929-30.681-36.929C15.34 48.29 15.34 152.786 0 152.786" stroke="#800" stroke-width="2" opacity=".546"/>
  </g>
</svg>
