<?xml version="1.0" encoding="UTF-8"?>
<svg width="1142px" height="177px" viewBox="0 0 1142 177" version="1.1" xmlns="http://www.w3.org/2000/svg" xmlns:xlink="http://www.w3.org/1999/xlink">
    <!-- Generator: Sketch 51.2 (57519) - http://www.bohemiancoding.com/sketch -->
    <title>research_group_in_USCISI</title>
    <desc>Created with Sketch.</desc>
    <defs>
        <polygon id="path-1" points="0 0.259 177.329 0.259 177.329 176.999618 0 176.999618"></polygon>
    </defs>
    <g id="research_group_in_USCISI" stroke="none" stroke-width="1" fill="none" fill-rule="evenodd">
        <g id="logo">
            <g id="Group-3">
                <mask id="mask-2" fill="white">
                    <use xlink:href="#path-1"></use>
                </mask>
                <g id="Clip-2"></g>
                <path d="M85.815,0.259 C136.357,0.259 177.329,41.231 177.329,91.772 C177.329,129.304 154.732,161.553 122.403,175.672 C121.19,176.12 111.628,179.389 105.097,173.627 C98.113,167.465 105.508,155.961 118.244,153.496 C130.98,151.031 137.553,152.057 140.429,147.025 C143.305,141.992 140.223,129.051 140.634,127.098 C141.045,125.147 143.356,123.195 143.202,120.987 C143.048,118.778 143.048,118.676 143.048,118.676 C143.048,118.676 146.026,115.697 144.896,113.386 C143.767,111.076 141.507,108.97 141.507,108.148 C141.507,107.327 141.404,106.454 142.791,105.683 C144.178,104.914 152.445,103.526 153.575,101.061 C154.705,98.596 145.975,90.585 141.352,85.449 C136.73,80.314 136.319,78.363 136.114,74.768 C135.909,71.173 134.163,38.203 96.366,22.386 C58.569,6.569 17.484,35.327 14.609,71.481 C12.566,97.159 23.788,115.373 37.969,124.952 C45.796,131.149 55.689,134.85 66.448,134.85 C91.805,134.85 112.361,114.295 112.361,88.937 C112.361,73.92 105.152,60.588 94.005,52.211 C117.96,61.89 127.787,96.084 116.061,118.435 C92.516,163.314 16.892,155.597 2.086,96.358 C-8.434,54.265 21.044,0.259 85.815,0.259" id="Fill-1" fill="#880000" mask="url(#mask-2)"></path>
            </g>
            <path d="M71.512,43.233 C77.857,43.518 82.77,48.892 82.484,55.237 C82.436,56.318 82.239,57.357 81.915,58.336 L86.431,61.264 C86.684,60.668 86.903,60.053 87.087,59.423 L90.532,59.081 L90.928,56.567 L87.75,55.183 C87.771,54.448 87.743,53.722 87.67,53.009 L90.776,51.392 L90.196,48.914 L86.697,48.845 C86.415,48.094 86.081,47.366 85.698,46.67 L87.894,43.99 L86.396,41.933 L83.169,43.201 C82.672,42.678 82.143,42.184 81.581,41.726 L82.606,38.415 L80.444,37.074 L77.937,39.462 C77.217,39.134 76.47,38.856 75.698,38.631 L75.356,35.185 L72.843,34.79 L71.459,37.967 C70.726,37.948 70.001,37.975 69.29,38.047 L67.662,34.92 L65.185,35.501 L65.116,39.023 C64.366,39.304 63.641,39.638 62.945,40.02 L60.265,37.824 L58.209,39.322 L59.477,42.549 C58.953,43.046 58.46,43.576 58.002,44.136 L54.691,43.111 L53.35,45.274 L55.737,47.781 C55.41,48.501 55.131,49.248 54.907,50.019 L51.46,50.361 L51.065,52.875 L54.243,54.259 C54.233,54.627 54.235,54.993 54.249,55.356 L59.508,54.235 L59.509,54.205 C59.793,47.861 65.168,42.949 71.512,43.233 Z M71.24,49.3 C74.233,49.435 76.552,51.971 76.418,54.965 C76.351,56.441 75.7,57.754 74.698,58.689 L74.419,55.151 L73.378,54.965 C73.383,54.92 73.387,54.874 73.389,54.828 C73.448,53.508 72.425,52.388 71.104,52.329 C69.951,52.278 68.951,53.051 68.677,54.127 L67.566,53.929 L66.113,57.088 C65.731,56.302 65.534,55.412 65.576,54.478 C65.71,51.484 68.246,49.167 71.24,49.3 Z" id="Fill-4" fill="#F0AA2C"></path>
            <path d="M65.096,85.115 C62.893,84.971 60.99,86.641 60.847,88.844 C60.703,91.048 62.372,92.95 64.576,93.094 C66.779,93.238 68.682,91.568 68.826,89.365 C68.969,87.161 67.299,85.259 65.096,85.115 Z M66.175,61.154 C64.951,61.094 63.742,61.117 62.552,61.213 L59.94,55.937 L55.785,56.823 L55.551,62.7 C54.289,63.144 53.067,63.678 51.894,64.291 C51.894,64.291 48.15,66.239 46.019,68.395 C45.126,69.206 44.285,70.074 43.503,70.995 L38.01,69.172 L35.698,72.736 L39.599,77.003 C39.027,78.193 38.537,79.43 38.136,80.71 L32.372,81.164 L31.627,85.347 L36.885,87.766 C36.826,88.989 36.848,90.198 36.944,91.388 L31.669,94 L32.555,98.155 L38.432,98.389 C38.876,99.651 39.409,100.873 40.022,102.047 L36.267,106.446 L38.696,109.929 L44.126,107.922 C44.938,108.814 45.806,109.655 46.727,110.438 L44.902,115.929 L48.467,118.242 L52.734,114.342 C53.924,114.913 55.163,115.404 56.442,115.804 L56.896,121.568 L61.079,122.313 L63.497,117.055 C64.724,117.114 65.936,117.092 67.129,116.996 L69.725,122.236 L73.879,121.35 L74.112,115.511 C75.376,115.067 76.602,114.533 77.778,113.918 L82.177,117.675 L85.661,115.244 L83.653,109.814 C84.545,109.003 85.387,108.134 86.169,107.215 L91.662,109.038 L93.974,105.473 L90.074,101.206 C90.645,100.016 91.135,98.778 91.536,97.498 L97.3,97.045 L98.045,92.861 L92.787,90.443 C92.846,89.217 92.824,88.005 92.727,86.811 L97.967,84.216 L97.082,80.06 L91.243,79.828 C90.798,78.564 90.265,77.339 89.649,76.162 L93.406,71.763 L90.975,68.279 L85.545,70.287 C84.734,69.394 83.866,68.554 82.945,67.771 L84.769,62.279 L81.205,59.967 L76.938,63.867 C75.748,63.296 74.51,62.806 73.23,62.405 L72.776,56.64 L68.593,55.895 L66.175,61.154 Z M66.086,69.945 C55.504,69.254 46.367,77.273 45.676,87.854 C44.986,98.435 53.004,107.573 63.586,108.263 C74.168,108.954 83.305,100.935 83.995,90.354 C84.685,79.773 76.667,70.635 66.086,69.945 Z M65.426,80.064 C70.419,80.39 74.203,84.701 73.876,89.695 C73.551,94.687 69.239,98.471 64.247,98.145 C59.253,97.82 55.47,93.508 55.795,88.515 C56.121,83.522 60.433,79.738 65.426,80.064 Z" id="Fill-5" fill="#F0AA2C"></path>
            <path d="M41.27,56.188 C40.583,56.283 40.104,56.917 40.199,57.603 C40.293,58.29 40.927,58.769 41.613,58.674 C42.3,58.579 42.78,57.946 42.685,57.259 C42.59,56.573 41.956,56.093 41.27,56.188 Z M40.087,48.753 C39.707,48.812 39.337,48.895 38.977,49 L37.841,47.543 L36.619,48.078 L36.918,49.9 C36.559,50.115 36.217,50.357 35.895,50.619 L34.305,49.742 L33.387,50.71 L34.348,52.252 C34.125,52.558 33.921,52.878 33.738,53.211 L31.935,52.997 L31.449,54.239 L32.917,55.304 C32.817,55.706 32.745,56.118 32.702,56.537 L30.959,57.04 L30.993,58.374 L32.763,58.785 C32.822,59.165 32.905,59.535 33.01,59.895 L31.553,61.031 L32.088,62.253 L33.91,61.954 C34.126,62.314 34.367,62.656 34.63,62.978 L33.752,64.567 L34.72,65.486 L36.262,64.525 C36.568,64.748 36.889,64.952 37.221,65.135 L37.007,66.938 L38.249,67.424 L39.315,65.955 C39.716,66.056 40.128,66.128 40.547,66.171 L41.051,67.914 L42.384,67.879 L42.795,66.11 C43.176,66.05 43.547,65.967 43.909,65.862 L45.038,67.309 L46.259,66.775 L45.961,64.965 C46.322,64.748 46.665,64.507 46.988,64.243 L48.578,65.12 L49.496,64.153 L48.535,62.61 C48.759,62.304 48.962,61.984 49.145,61.652 L50.949,61.865 L51.435,60.623 L49.966,59.558 C50.066,59.156 50.139,58.744 50.181,58.325 L51.925,57.822 L51.89,56.489 L50.12,56.077 C50.061,55.697 49.978,55.325 49.872,54.965 L51.319,53.836 L50.785,52.614 L48.975,52.911 C48.759,52.551 48.517,52.207 48.253,51.885 L49.13,50.295 L48.163,49.377 L46.62,50.337 C46.314,50.114 45.995,49.91 45.662,49.728 L45.876,47.924 L44.634,47.438 L43.568,48.907 C43.167,48.807 42.755,48.734 42.336,48.691 L41.832,46.948 L40.499,46.983 L40.087,48.753 Z M40.615,51.462 C37.319,51.918 35.015,54.96 35.472,58.258 C35.928,61.554 38.97,63.857 42.267,63.401 C45.564,62.945 47.867,59.902 47.411,56.605 C46.955,53.308 43.912,51.005 40.615,51.462 Z M41.052,54.615 C42.607,54.399 44.043,55.486 44.258,57.041 C44.474,58.597 43.387,60.033 41.831,60.248 C40.275,60.463 38.84,59.377 38.625,57.821 C38.409,56.265 39.496,54.829 41.052,54.615 Z" id="Fill-6" fill="#F0AA2C"></path>
        </g>
        <g id="text" transform="translate(190.000000, 8.000000)" fill="#880000">
            <path d="M5.89619192,45.3158968 C5.55658491,47.586573 5.01389634,50.1938951 3.11789946,50.5945036 C2.10078502,50.7964911 1.62806573,50.7964911 1.08537715,50.7964911 C0.407869716,50.7964911 0,50.9294662 0,51.2644288 C0,51.8653417 0.542688576,52 1.22019601,52 C3.38924375,52 6.64196207,51.7980125 7.92871422,51.7980125 C9.14891023,51.7980125 12.198547,52 15.0433956,52 C16.06051,52 16.6697547,51.8653417 16.6697547,51.2644288 C16.6697547,50.9294662 16.1953289,50.7964911 15.6543469,50.7964911 C14.9768394,50.7964911 14.0279877,50.7291619 12.8077917,50.4615285 C11.6558584,50.1938951 10.7752694,49.5929822 10.7752694,48.3221442 C10.7752694,47.2532936 10.8418255,46.3847474 10.978351,45.1812385 L14.5024136,18.5811673 L14.7737579,18.5811673 C17.1441806,23.5938238 21.2109318,32.0150196 21.8218831,33.4188327 C22.6342094,35.2905836 27.9860061,45.5162011 29.6123653,48.5897776 C30.6977425,50.5945036 31.3752499,51.9326708 31.9844946,51.9326708 C32.5954459,51.9326708 32.9333463,51.3300748 34.4914428,48.1891691 L49.2652006,17.8455961 L49.5348384,17.8455961 L53.599883,47.2532936 C53.8712273,49.1250445 53.6681457,49.9935908 53.2619825,50.1265659 C52.7875567,50.3285534 52.5162124,50.5288577 52.5162124,50.8621371 C52.5162124,51.2644288 52.9240821,51.4647331 54.4821786,51.5977082 C57.1922083,51.7980125 66.5442001,52 68.2371154,52 C69.1859671,52 70,51.7980125 70,51.2644288 C70,50.8621371 69.5255741,50.7964911 68.9146228,50.7964911 C68.0340338,50.7964911 66.679019,50.7291619 64.7130528,50.1265659 C62.6805305,49.5256531 62.0030231,47.586573 61.3937783,43.3768168 L55.2262421,2.07205516 C55.0248671,0.669925226 54.6169974,0 54.0060461,0 C53.3968014,0 53.058901,0.535266889 52.5162124,1.60580067 L34.0852796,39.7679733 L15.5860842,2.07205516 C14.7054951,0.334962613 14.299332,0 13.7566434,0 C13.2139548,0 12.8077917,0.602596057 12.6047101,1.73877577 L5.89619192,45.3158968" id="Fill-7"></path>
            <path d="M85.2461289,31.2121193 C84.9785177,31.2121193 84.9128772,31.0134982 84.9785177,30.7458648 L91.1268437,14.3040818 C91.1941673,14.0364484 91.3288145,13.7014858 91.5291021,13.7014858 C91.7293898,13.7014858 91.7950303,14.0364484 91.8623539,14.3040818 L97.8777159,30.8115107 C97.9433564,31.0134982 97.8777159,31.2121193 97.5427811,31.2121193 L85.2461289,31.2121193 Z M98.8135137,34.5550125 C99.1467654,34.5550125 99.3487362,34.6879876 99.4800171,35.0229502 L104.827193,49.1923737 C105.162127,49.9935908 104.692545,50.5945036 104.22633,50.7291619 C103.558143,50.7964911 103.290532,50.9294662 103.290532,51.3300748 C103.290532,51.7980125 104.093366,51.7980125 105.295091,51.8653417 C110.642267,52 115.521544,52 117.926678,52 C120.399137,52 121,51.8653417 121,51.3300748 C121,50.8621371 120.666748,50.7964911 120.131526,50.7964911 C119.330375,50.7964911 118.327254,50.7291619 117.324132,50.5288577 C115.922119,50.1265659 113.9832,49.2024731 111.443418,43.2101771 C107.166687,33.0838701 96.4740192,5.81555692 94.8700349,2.13938433 C94.2018483,0.602596057 93.801273,0 93.198727,0 C92.5305404,0 92.1299651,0.735571165 91.3288145,2.67296799 L74.553461,44.6459716 C73.2170879,47.9888648 71.9463553,50.2612242 68.8730338,50.6618328 C68.3378114,50.7291619 67.4020136,50.7964911 66.8011506,50.7964911 C66.2659281,50.7964911 66,50.9294662 66,51.3300748 C66,51.8653417 66.4005753,52 67.2690495,52 C70.7446294,52 74.420497,51.7980125 75.1560071,51.7980125 C77.2278903,51.7980125 80.1009242,52 82.240131,52 C82.973958,52 83.3745333,51.8653417 83.3745333,51.3300748 C83.3745333,50.9294662 83.1742457,50.7964911 82.373095,50.7964911 L81.3699737,50.7964911 C79.2980905,50.7964911 78.6972275,49.9279448 78.6972275,48.724436 C78.6972275,47.9215356 79.0304792,46.3191014 79.6986658,44.6459716 L83.3088928,35.0885961 C83.4418569,34.6879876 83.5765041,34.5550125 83.9097558,34.5550125 L98.8135137,34.5550125 Z" id="Fill-8"></path>
            <path d="M151.581425,53 C155.909117,53 161.04921,52.5266945 163.755508,51.445583 C164.905131,50.9722775 165.174228,50.6334725 165.513154,49.4842596 C166.1876,47.1858336 167,41.3052682 167,40.4948603 C167,39.9534533 166.865452,39.4801478 166.391977,39.4801478 C165.85208,39.4801478 165.715828,39.7508513 165.513154,40.8319627 C165.242354,42.0492772 164.363531,44.0088982 163.213908,45.2943142 C160.50761,48.4031481 156.856066,49.0790556 150.83715,49.0790556 C141.776417,49.0790556 129.535911,41.1026662 129.535911,25.0136845 C129.535911,18.4555092 130.820083,12.0335368 135.757501,7.50308384 C138.732896,4.7994539 142.587114,3.31313845 148.471481,3.31313845 C154.691368,3.31313845 159.967713,5.13825891 162.198833,7.50308384 C163.890057,9.26180533 164.76888,11.6283328 164.837005,13.7224542 C164.837005,14.6707677 164.971554,15.2104722 165.513154,15.2104722 C166.121177,15.2104722 166.255725,14.6707677 166.323851,13.6560553 C166.460103,12.3042403 166.391977,8.58589785 166.526526,6.35387086 C166.662777,3.98904594 166.865452,3.17863797 166.865452,2.63723097 C166.865452,2.23032445 166.594651,1.89322197 165.85208,1.82512046 C163.821931,1.62251847 161.658936,1.0147125 159.08889,0.675907485 C155.977243,0.270703501 153.475323,0 149.282179,0 C139.20637,0 132.782106,2.70362994 127.912813,7.16598137 C121.420423,13.1146482 120,21.0927401 120,25.6878895 C120,32.2460649 121.759349,39.8172502 128.386288,45.6314166 C134.539752,50.9722775 142.316314,53 151.581425,53" id="Fill-9"></path>
            <path d="M190.719674,22.4523135 C190.516608,22.4523135 190.313543,22.3163996 190.313543,21.9800127 L190.313543,20.56311 C190.313543,10.3101036 190.313543,8.4209001 190.448351,6.2632666 C190.584866,3.90176222 191.125805,2.75328958 192.955103,2.41690263 C193.769072,2.28098871 194.378269,2.21303175 194.920916,2.21303175 C195.734885,2.21303175 196.141016,2.08051567 196.141016,1.60651587 C196.141016,1.13591392 195.666627,1 194.716143,1 C192.074583,1 187.80679,1.20217196 186.180558,1.20217196 C184.351261,1.20217196 180.081762,1 176.423166,1 C175.474389,1 175,1.13591392 175,1.60651587 C175,2.08051567 175.406131,2.21303175 176.151843,2.21303175 C177.100621,2.21303175 178.252464,2.28098871 178.79511,2.41690263 C181.030539,2.8892035 181.571479,3.96802025 181.707994,6.2632666 C181.844509,8.4209001 181.844509,10.3101036 181.844509,20.56311 L181.844509,32.435191 C181.844509,38.6413605 181.844509,43.9708851 181.504928,46.8046904 C181.233605,48.7601519 180.895731,50.2450115 179.540822,50.5151404 C178.929919,50.6493554 178.115949,50.7852693 177.100621,50.7852693 C176.288358,50.7852693 176.017035,50.9857424 176.017035,51.3238282 C176.017035,51.7961291 176.491424,52 177.371944,52 C180.081762,52 184.351261,51.7961291 185.909235,51.7961291 C187.80679,51.7961291 192.074583,52 196.47889,52 C197.292859,52 197.833799,51.7961291 197.833799,51.3238282 C197.833799,50.9857424 197.495925,50.7852693 196.750213,50.7852693 C195.734885,50.7852693 194.243461,50.6493554 193.294684,50.5151404 C191.26232,50.2450115 190.854482,48.7601519 190.653123,46.8726473 C190.313543,43.9708851 190.313543,38.6413605 190.313543,32.435191 L190.313543,26.4991505 C190.313543,26.1627636 190.516608,26.0948066 190.719674,26.0948066 L216.602872,26.0948066 C216.805937,26.0948066 217.009003,26.2307205 217.009003,26.4991505 L217.009003,32.435191 C217.009003,38.6413605 217.009003,43.9708851 216.671129,46.8046904 C216.399806,48.7601519 216.060225,50.2450115 214.705316,50.5151404 C214.096119,50.6493554 213.28215,50.7852693 212.266822,50.7852693 C211.454559,50.7852693 211.183236,50.9857424 211.183236,51.3238282 C211.183236,51.7961291 211.655918,52 212.604696,52 C215.247963,52 219.515755,51.7961291 221.075436,51.7961291 C222.972991,51.7961291 227.240784,52 231.645091,52 C232.457354,52 233,51.7961291 233,51.3238282 C233,50.9857424 232.66042,50.7852693 231.916414,50.7852693 C230.899379,50.7852693 229.409662,50.6493554 228.459178,50.5151404 C226.426815,50.2450115 226.020683,48.7601519 225.817617,46.8726473 C225.479743,43.9708851 225.479743,38.6413605 225.479743,32.435191 L225.479743,20.56311 C225.479743,10.3101036 225.479743,8.4209001 225.614552,6.2632666 C225.751067,3.90176222 226.292006,2.75328958 228.12301,2.41690263 C228.935273,2.28098871 229.54447,2.21303175 230.087116,2.21303175 C230.899379,2.21303175 231.305511,2.08051567 231.305511,1.60651587 C231.305511,1.13591392 230.832828,1 229.882344,1 C227.240784,1 222.972991,1.20217196 221.345053,1.20217196 C219.515755,1.20217196 215.247963,1 211.589367,1 C210.64059,1 210.166201,1.13591392 210.166201,1.60651587 C210.166201,2.08051567 210.572332,2.21303175 211.318044,2.21303175 C212.266822,2.21303175 213.418665,2.28098871 213.959605,2.41690263 C216.19674,2.8892035 216.73768,3.96802025 216.874195,6.2632666 C217.009003,8.4209001 217.009003,10.3101036 217.009003,20.56311 L217.009003,21.9800127 C217.009003,22.3163996 216.805937,22.4523135 216.602872,22.4523135 L190.719674,22.4523135" id="Fill-10"></path>
            <path d="M246.72117,32.435191 C246.72117,38.9794464 246.72117,44.308971 246.396959,47.1410773 C246.202105,49.0982378 245.812398,50.2450115 244.512281,50.5151404 C243.926082,50.6493554 243.146667,50.7852693 242.17076,50.7852693 C241.389708,50.7852693 241.130994,50.9857424 241.130994,51.3238282 C241.130994,51.7961291 241.586199,52 242.431111,52 C245.031345,52 249.128187,51.7961291 250.623158,51.7961291 C252.37848,51.7961291 256.473684,52 260.76538,52 C261.480936,52 262,51.7961291 262,51.3238282 C262,50.9857424 261.675789,50.7852693 260.960234,50.7852693 C259.985965,50.7852693 258.554854,50.6493554 257.644444,50.5151404 C255.694269,50.2450115 255.239064,49.0302808 255.042573,47.2090343 C254.78386,44.308971 254.78386,38.9794464 254.78386,32.435191 L254.78386,20.56311 C254.78386,10.3101036 254.78386,8.4209001 254.914854,6.2632666 C255.042573,3.90176222 255.564912,2.75328958 257.318596,2.41690263 C258.099649,2.28098871 258.620351,2.21303175 259.270409,2.21303175 C259.920468,2.21303175 260.310175,2.08051567 260.310175,1.54025784 C260.310175,1.13591392 259.791111,1 258.946199,1 C256.473684,1 252.63883,1.20217196 251.012865,1.20217196 C249.128187,1.20217196 245.031345,1 242.560468,1 C241.520702,1 241,1.13591392 241,1.54025784 C241,2.08051567 241.389708,2.21303175 242.041404,2.21303175 C242.820819,2.21303175 243.667368,2.28098871 244.381287,2.48485959 C245.812398,2.82124654 246.462456,3.96802025 246.591813,6.2632666 C246.72117,8.4209001 246.72117,10.3101036 246.72117,20.56311 L246.72117,32.435191" id="Fill-11"></path>
            <path d="M279.992991,14.6502406 L280.196154,14.6502406 C281.416839,15.9340071 288.942403,24.3728585 296.319436,31.6639718 C303.370384,38.6201155 312.046635,47.4636509 316.306227,51.5138916 C317.050589,52.2569458 317.864947,53 318.609309,53 C319.220505,53 319.491958,52.3912737 319.491958,50.9068656 L320.238027,8.30452358 C320.306317,4.52293872 320.847516,3.1048444 322.744272,2.56583253 C323.558631,2.36179018 324.101537,2.36179018 324.779315,2.36179018 C325.591967,2.36179018 326,2.16114854 326,1.7547642 C326,1.21575233 325.320514,1.14773821 324.439572,1.14773821 C321.118968,1.14773821 318.542726,1.35008021 317.796657,1.35008021 C316.374517,1.35008021 313.120496,1.14773821 309.605266,1.14773821 C308.587744,1.14773821 307.843382,1.21575233 307.843382,1.7547642 C307.843382,2.16114854 308.114835,2.36179018 308.929194,2.36179018 C309.875011,2.36179018 311.502022,2.36179018 312.5093,2.76817453 C314.136311,3.44321463 314.747507,4.72698107 314.814089,8.84353545 L315.491868,39.1591274 L315.152125,39.1591274 C313.99973,38.0777029 304.860814,28.3567854 300.251236,23.7658325 C290.364543,13.9752005 280.061281,2.97051652 279.246922,2.09313442 C278.082577,0.877382098 277.473088,0 276.728727,0 C276.049241,0 275.846078,0.945396214 275.846078,2.29547642 L275.236589,42.2656721 C275.170006,48.138691 274.896846,50.0974976 273.134963,50.6365095 C272.185731,50.9068656 270.966754,50.9748797 270.084105,50.9748797 C269.406326,50.9748797 269,51.1092076 269,51.5138916 C269,52.1226179 269.609489,52.190632 270.49043,52.190632 C274.015904,52.190632 277.201635,51.9865897 277.812831,51.9865897 C279.11205,51.9865897 281.823165,52.190632 286.22958,52.190632 C287.177105,52.190632 287.788301,52.0546038 287.788301,51.5138916 C287.788301,51.1092076 287.381975,50.9748797 286.635906,50.9748797 C285.551802,50.9748797 284.264534,50.9068656 283.110432,50.5021816 C281.754875,50.0294835 280.873933,48.2730189 280.737353,43.007026 L279.992991,14.6502406" id="Fill-12"></path>
            <path d="M340.801017,32.1350233 C340.801017,38.3724962 340.801017,43.7289026 340.46529,46.5770014 C340.195691,48.5423261 339.858269,50.0346752 338.511969,50.3061667 C337.904947,50.4410586 337.097846,50.5776581 336.088969,50.5776581 C335.280172,50.5776581 335.010573,50.7791423 335.010573,51.1189335 C335.010573,51.5936166 335.481947,51.7985158 336.356872,51.7985158 C337.704867,51.7985158 339.454718,51.6619163 341.002793,51.6619163 C342.618691,51.5936166 344.098943,51.5936166 344.839916,51.5936166 C346.861061,51.5936166 348.948334,51.6619163 351.842709,51.7985158 C354.737084,51.865108 358.440255,52 363.491422,52 C366.05007,52 366.6537,52 367.125075,50.2378669 C367.462498,48.8821173 368,44.2718855 368,42.7112366 C368,42.0350693 368,41.4903789 367.462498,41.4903789 C366.989427,41.4903789 366.857171,41.7635779 366.721524,42.5097524 C366.25015,45.287844 365.441352,46.7136008 363.693198,47.5263676 C361.941652,48.3391344 359.115101,48.3391344 357.363555,48.3391344 C350.496409,48.3391344 349.418013,47.3214684 349.284061,42.6446444 C349.217933,40.6776121 349.284061,34.4418467 349.284061,32.1350233 L349.284061,26.7786169 C349.284061,26.3722335 349.35019,26.1007421 349.687612,26.1007421 C351.303511,26.1007421 357.968881,26.1690418 359.247357,26.3056413 C361.739876,26.5754252 362.68093,27.5930912 363.020048,28.9488409 C363.220128,29.8299074 363.220128,30.7109739 363.287951,31.3888488 C363.287951,31.7286399 363.423599,32.0001313 363.893277,32.0001313 C364.501995,32.0001313 364.501995,31.2539568 364.501995,30.7109739 C364.501995,30.2379983 364.702075,27.526499 364.769898,26.1690418 C365.037802,22.711368 365.307401,21.6271097 365.307401,21.2207263 C365.307401,20.8143429 365.105625,20.676036 364.836026,20.676036 C364.501995,20.676036 364.2307,21.0158271 363.759326,21.55881 C363.154,22.2366848 362.143427,22.441584 360.529224,22.576476 C358.979453,22.711368 351.235687,22.711368 349.755436,22.711368 C349.35019,22.711368 349.284061,22.441584 349.284061,21.9651934 L349.284061,4.81171603 C349.284061,4.3387404 349.418013,4.1355487 349.755436,4.1355487 C351.101735,4.1355487 358.170656,4.27044066 359.315181,4.40533263 C362.68093,4.81171603 363.355775,5.62619032 363.827149,6.84704801 C364.162877,7.6598148 364.2307,8.81237276 364.2307,9.28705589 C364.2307,9.89833848 364.366347,10.2364221 364.836026,10.2364221 C365.307401,10.2364221 365.441352,9.83003875 365.509176,9.49024759 C365.643128,8.67748079 365.780471,5.69449005 365.848294,5.01661522 C366.05007,1.89702502 366.384101,1.08425823 366.384101,0.609575097 C366.384101,0.269783936 366.317973,0 365.982246,0 C365.643128,0 365.241273,0.201484206 364.90385,0.269783936 C364.366347,0.406383398 363.287951,0.541275366 362.009475,0.677874828 C360.730999,0.744467065 347.332436,0.744467065 345.177339,0.744467065 C344.23459,0.744467065 342.686515,0.677874828 340.934969,0.609575097 C339.252942,0.609575097 337.301317,0.541275366 335.481947,0.541275366 C334.47307,0.541275366 334,0.677874828 334,1.15085046 C334,1.62724108 334.405246,1.76042556 335.14622,1.76042556 C336.088969,1.76042556 337.233493,1.82872529 337.770995,1.96532475 C339.993916,2.44000788 340.531418,3.52426611 340.667066,5.83108951 C340.801017,7.99960596 340.801017,9.89833848 340.801017,20.2030604 L340.801017,32.1350233" id="Fill-13"></path>
            <path d="M403.722361,32.435191 C403.722361,38.9794464 403.722361,44.308971 403.396538,47.1410773 C403.2017,49.0982378 402.812022,50.2450115 401.512007,50.5151404 C400.925854,50.6493554 400.144862,50.7852693 399.172306,50.7852693 C398.391315,50.7852693 398.130984,50.9857424 398.130984,51.3238282 C398.130984,51.7961291 398.586153,52 399.432637,52 C402.032668,52 406.127553,51.7961291 407.622408,51.7961291 C409.377592,51.7961291 413.474115,52 417.763839,52 C418.480976,52 419,51.7961291 419,51.3238282 C419,50.9857424 418.674177,50.7852693 417.958678,50.7852693 C416.984485,50.7852693 415.553485,50.6493554 414.644784,50.5151404 C412.693123,50.2450115 412.237954,49.0302808 412.043116,47.2090343 C411.784422,44.308971 411.784422,38.9794464 411.784422,32.435191 L411.784422,20.56311 C411.784422,10.3101036 411.784422,8.4209001 411.913769,6.2632666 C412.043116,3.90176222 412.563777,2.75328958 414.318961,2.41690263 C415.098316,2.28098871 415.620614,2.21303175 416.268985,2.21303175 C416.918993,2.21303175 417.30867,2.08051567 417.30867,1.54025784 C417.30867,1.13591392 416.788009,1 415.9448,1 C413.474115,1 409.637923,1.20217196 408.012085,1.20217196 C406.127553,1.20217196 402.032668,1 399.560346,1 C398.520661,1 398,1.13591392 398,1.54025784 C398,2.08051567 398.391315,2.21303175 399.041322,2.21303175 C399.820677,2.21303175 400.66716,2.28098871 401.381023,2.48485959 C402.812022,2.82124654 403.46203,3.96802025 403.593014,6.2632666 C403.722361,8.4209001 403.722361,10.3101036 403.722361,20.56311 L403.722361,32.435191" id="Fill-14"></path>
            <path d="M436.991942,14.6502406 L437.195118,14.6502406 C438.415875,15.9340071 445.940183,24.3728585 453.317658,31.6639718 C460.369028,38.6201155 469.045799,47.4636509 473.307354,51.5138916 C474.05176,52.2569458 474.866167,53 475.612281,53 C476.221806,53 476.493275,52.3912737 476.493275,50.9068656 L477.239389,8.30452358 C477.305976,4.52293872 477.848914,3.1048444 479.747491,2.56583253 C480.560192,2.36179018 481.10313,2.36179018 481.779242,2.36179018 C482.59365,2.36179018 483,2.16114854 483,1.7547642 C483,1.21575233 482.323888,1.14773821 481.441186,1.14773821 C478.120383,1.14773821 475.543987,1.35008021 474.799581,1.35008021 C473.375648,1.35008021 470.119724,1.14773821 466.605991,1.14773821 C465.588408,1.14773821 464.842294,1.21575233 464.842294,1.7547642 C464.842294,2.16114854 465.115471,2.36179018 465.928171,2.36179018 C466.87746,2.36179018 468.504568,2.36179018 469.510199,2.76817453 C471.137307,3.44321463 471.746832,4.72698107 471.815127,8.84353545 L472.492946,39.1591274 L472.153183,39.1591274 C471.002426,38.0777029 461.859548,28.3567854 457.249693,23.7658325 C447.364116,13.9752005 437.060237,2.97051652 436.245829,2.09313442 C435.083121,0.877382098 434.471889,0 433.727482,0 C433.047956,0 432.844781,0.945396214 432.844781,2.29547642 L432.236963,42.2656721 C432.168669,48.138691 431.897199,50.0974976 430.133503,50.6365095 C429.185922,50.9068656 427.965164,50.9748797 427.082462,50.9748797 C426.404643,50.9748797 426,51.1092076 426,51.5138916 C426,52.1226179 426.609525,52.190632 427.49052,52.190632 C431.014498,52.190632 434.200419,51.9865897 434.811652,51.9865897 C436.110948,51.9865897 438.822226,52.190632 443.228905,52.190632 C444.178194,52.190632 444.787719,52.0546038 444.787719,51.5138916 C444.787719,51.1092076 444.381369,50.9748797 443.636963,50.9748797 C442.551086,50.9748797 441.263741,50.9068656 440.111278,50.5021816 C438.753931,50.0294835 437.872937,48.2730189 437.738056,43.007026 L436.991942,14.6502406" id="Fill-15"></path>
            <path d="M505.837599,32.4143254 C505.837599,38.6271137 505.837599,43.9623222 505.505644,46.7991496 C505.306136,48.7566966 504.905443,50.2431398 503.574271,50.5135568 C502.975746,50.647915 502.176037,50.7839738 501.178496,50.7839738 C500.378786,50.7839738 500.113893,50.9846607 500.113893,51.3231071 C500.113893,51.7959117 500.578294,52 501.445065,52 C504.10741,52 508.302112,51.7959117 509.832793,51.7959117 C511.695429,51.7959117 515.890131,52 520.282665,52 C521.015312,52 521.548452,51.7959117 521.548452,51.3231071 C521.548452,50.9846607 521.216497,50.7839738 520.483849,50.7839738 C519.484632,50.7839738 518.021013,50.647915 517.08718,50.5135568 C515.092098,50.2431398 514.689728,48.7566966 514.491897,46.8671791 C514.159942,43.9623222 514.159942,38.6271137 514.159942,32.4143254 L514.159942,4.72804579 L522.54767,4.93043336 C528.470884,5.0647915 530.269811,6.95600981 530.402258,8.71116926 L530.469319,9.45439084 C530.534704,10.4680294 530.668828,10.8047751 531.201967,10.8047751 C531.599307,10.8047751 531.73343,10.4 531.798815,9.72480785 C531.798815,7.96794767 532,3.30963205 532,1.89121832 C532,0.877579722 531.932938,0.472804579 531.46686,0.472804579 C531.201967,0.472804579 530.668828,0.607162715 529.671286,0.811251022 C528.672069,0.945609158 527.206773,1.14799673 525.077568,1.14799673 L498.713982,1.14799673 C496.517715,1.14799673 493.989494,1.01363859 492.056444,0.811251022 C490.393316,0.67519215 489.72773,0 489.19459,0 C488.79725,0 488.597742,0.406475879 488.396558,1.2840556 C488.264111,1.82318888 487,7.96794767 487,9.0496157 C487,9.79283729 487.132447,10.129583 487.596848,10.129583 C487.997541,10.129583 488.197049,9.85916599 488.329496,9.32003271 C488.463619,8.77919869 488.79725,7.96794767 489.46116,6.95600981 C490.458701,5.47126738 492.056444,5.13282093 495.919191,4.99676206 L505.837599,4.72804579 L505.837599,32.4143254" id="Fill-16"></path>
            <path d="M544.801017,32.1350233 C544.801017,38.3724962 544.801017,43.7289026 544.46529,46.5770014 C544.195691,48.5423261 543.858269,50.0346752 542.511969,50.3061667 C541.904947,50.4410586 541.097846,50.5776581 540.088969,50.5776581 C539.280172,50.5776581 539.010573,50.7791423 539.010573,51.1189335 C539.010573,51.5936166 539.481947,51.7985158 540.356872,51.7985158 C541.704867,51.7985158 543.453022,51.6619163 545.002793,51.6619163 C546.616996,51.5936166 548.098943,51.5936166 548.839916,51.5936166 C550.861061,51.5936166 552.948334,51.6619163 555.842709,51.7985158 C558.737084,51.865108 562.43856,52 567.489727,52 C570.05007,52 570.6537,52 571.12677,50.2378669 C571.462498,48.8821173 572,44.2718855 572,42.7112366 C572,42.0350693 572,41.4903789 571.462498,41.4903789 C570.989427,41.4903789 570.855476,41.7635779 570.721524,42.5097524 C570.25015,45.287844 569.441352,46.7136008 567.691502,47.5263676 C565.941652,48.3391344 563.115101,48.3391344 561.363555,48.3391344 C554.496409,48.3391344 553.418013,47.3214684 553.284061,42.6446444 C553.216238,40.6776121 553.284061,34.4418467 553.284061,32.1350233 L553.284061,26.7786169 C553.284061,26.3722335 553.35019,26.1007421 553.687612,26.1007421 C555.303511,26.1007421 561.968881,26.1690418 563.247357,26.3056413 C565.739876,26.5754252 566.68093,27.5930912 567.020048,28.9488409 C567.220128,29.8299074 567.220128,30.7109739 567.287951,31.3888488 C567.287951,31.7286399 567.423599,32.0001313 567.893277,32.0001313 C568.500299,32.0001313 568.500299,31.2539568 568.500299,30.7109739 C568.500299,30.2379983 568.702075,27.526499 568.769898,26.1690418 C569.037802,22.711368 569.307401,21.6271097 569.307401,21.2207263 C569.307401,20.8143429 569.105625,20.676036 568.836026,20.676036 C568.500299,20.676036 568.2307,21.0158271 567.75763,21.55881 C567.154,22.2366848 566.143427,22.441584 564.529224,22.576476 C562.979453,22.711368 555.235687,22.711368 553.755436,22.711368 C553.35019,22.711368 553.284061,22.441584 553.284061,21.9651934 L553.284061,4.81171603 C553.284061,4.3387404 553.418013,4.1355487 553.755436,4.1355487 C555.101735,4.1355487 562.170656,4.27044066 563.315181,4.40533263 C566.68093,4.81171603 567.355775,5.62619032 567.825454,6.84704801 C568.162877,7.6598148 568.2307,8.81237276 568.2307,9.28705589 C568.2307,9.89833848 568.366347,10.2364221 568.836026,10.2364221 C569.307401,10.2364221 569.441352,9.83003875 569.509176,9.49024759 C569.643128,8.67748079 569.780471,5.69449005 569.846599,5.01661522 C570.05007,1.89702502 570.384101,1.08425823 570.384101,0.609575097 C570.384101,0.269783936 570.317973,0 569.982246,0 C569.643128,0 569.241273,0.201484206 568.90385,0.269783936 C568.366347,0.406383398 567.287951,0.541275366 566.009475,0.677874828 C564.729304,0.744467065 551.332436,0.744467065 549.177339,0.744467065 C548.23459,0.744467065 546.686515,0.677874828 544.934969,0.609575097 C543.251247,0.609575097 541.301317,0.541275366 539.481947,0.541275366 C538.47307,0.541275366 538,0.677874828 538,1.15085046 C538,1.62724108 538.405246,1.76042556 539.14622,1.76042556 C540.088969,1.76042556 541.233493,1.82872529 541.770995,1.96532475 C543.993916,2.44000788 544.531418,3.52426611 544.667066,5.83108951 C544.801017,7.99960596 544.801017,9.89833848 544.801017,20.2030604 L544.801017,32.1350233" id="Fill-17"></path>
            <path d="M595.695761,20.4865116 C595.695761,10.2736503 595.695761,8.39184391 595.828655,6.24265853 C595.963232,3.8904005 596.496491,2.74642466 598.299817,2.41135481 C599.100548,2.27597306 600.170432,2.20828218 600.903874,2.20828218 C601.706287,2.20828218 602.106652,2.07628497 602.106652,1.60414109 C602.106652,1.13538176 601.638998,1 600.703691,1 C598.099635,1 593.222916,1.20138036 591.619773,1.20138036 C589.818129,1.20138036 585.609247,1 582.468567,1 C581.469336,1 581,1.13538176 581,1.60414109 C581,2.07628497 581.402047,2.20828218 582.13549,2.20828218 C583.005191,2.20828218 583.805921,2.27597306 584.340863,2.41135481 C586.544554,2.88180642 587.079496,3.95639911 587.212391,6.24265853 C587.346967,8.39184391 587.346967,10.2736503 587.346967,20.4865116 L587.346967,32.312108 C587.346967,38.4939775 587.346967,43.8026346 587.012208,46.6253443 C586.744737,48.5731493 586.409978,50.052195 585.074305,50.3212662 C584.473758,50.4549557 583.673027,50.5903375 582.670432,50.5903375 C581.868019,50.5903375 581.60223,50.7900255 581.60223,51.1267877 C581.60223,51.5972393 582.069884,51.8003119 582.937903,51.8003119 C584.273575,51.8003119 586.011295,51.6649302 587.54715,51.6649302 C589.148611,51.5972393 590.61886,51.5972393 591.355667,51.5972393 C594.092618,51.5972393 596.496491,51.6649302 599.502595,51.8003119 C602.508699,51.8663105 605.980775,52 610.790205,52 C614.263962,52 614.598722,51.6649302 614.999087,50.1858845 C615.534029,48.2380794 616,43.1968013 616,42.4589707 C616,41.651757 615.932712,41.3166871 615.46674,41.3166871 C614.931799,41.3166871 614.798904,41.7211401 614.731616,42.3235889 C614.598722,43.6012543 613.796309,45.4830607 612.995578,46.356273 C611.325147,48.1703886 608.72109,48.2380794 605.178362,48.2380794 C599.970249,48.2380794 598.234211,47.7676278 597.098722,46.760726 C595.695761,45.5507516 595.695761,40.9139264 595.695761,32.312108 L595.695761,20.4865116" id="Fill-18"></path>
            <path d="M636.694079,20.4865116 C636.694079,10.2736503 636.694079,8.39184391 636.828655,6.24265853 C636.959867,3.8904005 637.496491,2.74642466 639.298135,2.41135481 C640.100548,2.27597306 641.168749,2.20828218 641.903874,2.20828218 C642.704604,2.20828218 643.106652,2.07628497 643.106652,1.60414109 C643.106652,1.13538176 642.638998,1 641.703691,1 C639.099635,1 634.221234,1.20138036 632.618091,1.20138036 C630.816447,1.20138036 626.607565,1 623.468567,1 C622.467654,1 622,1.13538176 622,1.60414109 C622,2.07628497 622.400365,2.20828218 623.137172,2.20828218 C624.001826,2.20828218 624.804239,2.27597306 625.339181,2.41135481 C627.544554,2.88180642 628.077814,3.95639911 628.210708,6.24265853 C628.345285,8.39184391 628.345285,10.2736503 628.345285,20.4865116 L628.345285,32.312108 C628.345285,38.4939775 628.345285,43.8026346 628.010526,46.6253443 C627.744737,48.5731493 627.409978,50.052195 626.074305,50.3212662 C625.473758,50.4549557 624.673027,50.5903375 623.668749,50.5903375 C622.866337,50.5903375 622.598866,50.7900255 622.598866,51.1267877 C622.598866,51.5972393 623.069884,51.8003119 623.93622,51.8003119 C625.271893,51.8003119 627.00793,51.6649302 628.545468,51.6649302 C630.148611,51.5972393 631.61886,51.5972393 632.353984,51.5972393 C635.090935,51.5972393 637.496491,51.6649302 640.502595,51.8003119 C643.507017,51.8663105 646.979093,52 651.790205,52 C655.26228,52 655.598722,51.6649302 655.997405,50.1858845 C656.532346,48.2380794 657,43.1968013 657,42.4589707 C657,41.651757 656.932712,41.3166871 656.465058,41.3166871 C655.931799,41.3166871 655.798904,41.7211401 655.731616,42.3235889 C655.598722,43.6012543 654.796309,45.4830607 653.993896,46.356273 C652.323464,48.1703886 649.719408,48.2380794 646.178362,48.2380794 C640.968567,48.2380794 639.234211,47.7676278 638.097039,46.760726 C636.694079,45.5507516 636.694079,40.9139264 636.694079,32.312108 L636.694079,20.4865116" id="Fill-19"></path>
            <path d="M668.722807,32.435191 C668.722807,38.9794464 668.722807,44.308971 668.396959,47.1410773 C668.200468,49.0982378 667.81076,50.2450115 666.512281,50.5151404 C665.926082,50.6493554 665.145029,50.7852693 664.17076,50.7852693 C663.391345,50.7852693 663.129357,50.9857424 663.129357,51.3238282 C663.129357,51.7961291 663.586199,52 664.431111,52 C667.031345,52 671.12655,51.7961291 672.623158,51.7961291 C674.37848,51.7961291 678.475322,52 682.76538,52 C683.479298,52 684,51.7961291 684,51.3238282 C684,50.9857424 683.675789,50.7852693 682.960234,50.7852693 C681.984327,50.7852693 680.554854,50.6493554 679.644444,50.5151404 C677.694269,50.2450115 677.239064,49.0302808 677.042573,47.2090343 C676.785497,44.308971 676.785497,38.9794464 676.785497,32.435191 L676.785497,20.56311 C676.785497,10.3101036 676.785497,8.4209001 676.914854,6.2632666 C677.042573,3.90176222 677.564912,2.75328958 679.318596,2.41690263 C680.099649,2.28098871 680.620351,2.21303175 681.270409,2.21303175 C681.91883,2.21303175 682.310175,2.08051567 682.310175,1.54025784 C682.310175,1.13591392 681.789474,1 680.944561,1 C678.475322,1 674.63883,1.20217196 673.012865,1.20217196 C671.12655,1.20217196 667.031345,1 664.560468,1 C663.520702,1 663,1.13591392 663,1.54025784 C663,2.08051567 663.391345,2.21303175 664.039766,2.21303175 C664.820819,2.21303175 665.667368,2.28098871 666.381287,2.48485959 C667.81076,2.82124654 668.462456,3.96802025 668.59345,6.2632666 C668.722807,8.4209001 668.722807,10.3101036 668.722807,20.56311 L668.722807,32.435191" id="Fill-20"></path>
            <path d="M737.731564,40.0879537 C737.731564,36.7084163 737.731564,34.0047864 737.79872,31.9770639 C737.864198,29.6105365 738.532406,28.4613235 740.332203,28.1225185 C741.133046,27.988018 741.598106,27.9199165 742.132001,27.9199165 C742.598739,27.9199165 743,27.785416 743,27.3785095 C743,26.838805 742.531583,26.702602 741.665262,26.702602 C739.464204,26.702602 735.931766,26.905204 733.865022,26.905204 C731.865433,26.905204 727.666466,26.702602 724.199506,26.702602 C723.267708,26.702602 722.79929,26.838805 722.79929,27.3785095 C722.79929,27.785416 723.200551,27.9199165 723.798245,27.9199165 C724.733401,27.9199165 725.866669,27.988018 726.398885,28.1225185 C728.599943,28.595824 729.199316,29.678638 729.266472,31.9770639 C729.333629,34.0047864 729.333629,36.5722133 729.333629,39.9534533 L729.333629,46.3090267 C729.333629,47.4565371 729.066681,48.3350466 728.066048,48.8083521 C726.466042,49.5523611 724.134028,49.5523611 722.399709,49.5523611 C708.332077,49.5523611 699.200456,38.6680373 699.200456,24.1334725 C699.200456,15.8182782 701.601305,10.7481208 705.331855,7.57118535 C710.000919,3.65024093 714.866415,3.38123996 718.534845,3.38123996 C726.06646,3.38123996 731.400374,6.49007388 733.398283,8.65229682 C735.132603,10.5472213 735.466707,12.7094443 735.666498,14.2638612 C735.731975,14.8052682 735.866289,15.1440732 736.331348,15.1440732 C736.866922,15.1440732 737.065034,14.8052682 737.065034,13.7224542 C737.065034,5.2727594 737.531773,3.38123996 737.531773,2.63723097 C737.531773,2.16222294 737.399138,1.89322197 736.598296,1.82512046 C735.065446,1.75701895 732.733433,1.35181497 731.333217,1.08281401 C730.000158,0.812110504 724.134028,0 719.532121,0 C713.932938,0 708.00133,0.473305493 701.601305,4.39424992 C695.533705,8.11259235 690,15.6837777 690,26.5 C690,45.1581111 704.467214,53 720.799702,53 C725.999303,53 732.530284,52.255991 736.866922,49.9592676 C737.666086,49.4842596 737.731564,49.3497591 737.731564,47.5246386 L737.731564,40.0879537" id="Fill-21"></path>
            <path d="M756.799661,32.1350233 C756.799661,38.3724962 756.799661,43.7289026 756.463917,46.5770014 C756.196,48.5423261 755.858561,50.0346752 754.512194,50.3061667 C753.905142,50.4410586 753.098,50.5776581 752.087377,50.5776581 C751.27854,50.5776581 751.010623,50.7791423 751.010623,51.1189335 C751.010623,51.5936166 751.482021,51.7985158 752.35699,51.7985158 C753.703356,51.7985158 755.453294,51.6619163 757.003142,51.6619163 C758.619121,51.5936166 760.101142,51.5936166 760.840457,51.5936166 C762.860007,51.5936166 764.947384,51.6619163 767.843599,51.7985158 C770.738118,51.865108 774.441474,52 779.489502,52 C782.049973,52 782.653633,52 783.128423,50.2378669 C783.462471,48.8821173 784,44.2718855 784,42.7112366 C784,42.0350693 784,41.4903789 783.462471,41.4903789 C782.992768,41.4903789 782.857114,41.7635779 782.72146,42.5097524 C782.251758,45.287844 781.442921,46.7136008 779.691287,47.5263676 C777.943045,48.3391344 775.112962,48.3391344 773.363024,48.3391344 C766.495536,48.3391344 765.418782,47.3214684 765.283128,42.6446444 C765.216997,40.6776121 765.283128,34.4418467 765.283128,32.1350233 L765.283128,26.7786169 C765.283128,26.3722335 765.350955,26.1007421 765.686699,26.1007421 C767.304374,26.1007421 773.970076,26.1690418 775.248616,26.3056413 C777.74126,26.5754252 778.68236,27.5930912 779.0198,28.9488409 C779.221585,29.8299074 779.221585,30.7109739 779.289412,31.3888488 C779.289412,31.7286399 779.42337,32.0001313 779.894768,32.0001313 C780.500125,32.0001313 780.500125,31.2539568 780.500125,30.7109739 C780.500125,30.2379983 780.703606,27.526499 780.771433,26.1690418 C781.037654,22.711368 781.307266,21.6271097 781.307266,21.2207263 C781.307266,20.8143429 781.105481,20.676036 780.837564,20.676036 C780.500125,20.676036 780.232208,21.0158271 779.759114,21.55881 C779.155454,22.2366848 778.143135,22.441584 776.527156,22.576476 C774.979004,22.711368 767.236547,22.711368 765.756222,22.711368 C765.350955,22.711368 765.283128,22.441584 765.283128,21.9651934 L765.283128,4.81171603 C765.283128,4.3387404 765.418782,4.1355487 765.756222,4.1355487 C767.102588,4.1355487 774.170166,4.27044066 775.316443,4.40533263 C778.68236,4.81171603 779.357239,5.62619032 779.826941,6.84704801 C780.166077,7.6598148 780.232208,8.81237276 780.232208,9.28705589 C780.232208,9.89833848 780.366166,10.2364221 780.837564,10.2364221 C781.307266,10.2364221 781.442921,9.83003875 781.512443,9.49024759 C781.646402,8.67748079 781.78036,5.69449005 781.846491,5.01661522 C782.049973,1.89702502 782.385716,1.08425823 782.385716,0.609575097 C782.385716,0.269783936 782.317889,0 781.982146,0 C781.646402,0 781.241135,0.201484206 780.905391,0.269783936 C780.366166,0.406383398 779.289412,0.541275366 778.009177,0.677874828 C776.730637,0.744467065 763.331405,0.744467065 761.176201,0.744467065 C760.2351,0.744467065 758.686948,0.677874828 756.935315,0.609575097 C755.251509,0.609575097 753.299786,0.541275366 751.482021,0.541275366 C750.471398,0.541275366 750,0.677874828 750,1.15085046 C750,1.62724108 750.403571,1.76042556 751.144581,1.76042556 C752.087377,1.76042556 753.233654,1.82872529 753.771183,1.96532475 C755.992519,2.44000788 756.530048,3.52426611 756.665702,5.83108951 C756.799661,7.99960596 756.799661,9.89833848 756.799661,20.2030604 L756.799661,32.1350233" id="Fill-22"></path>
            <path d="M802.992991,14.6502406 L803.196154,14.6502406 C804.416839,15.9340071 811.942403,24.3728585 819.319436,31.6639718 C826.370384,38.6201155 835.044928,47.4636509 839.30452,51.5138916 C840.052296,52.2569458 840.864947,53 841.609309,53 C842.220505,53 842.491958,52.3912737 842.491958,50.9068656 L843.23632,8.30452358 C843.30461,4.52293872 843.847516,3.1048444 845.745979,2.56583253 C846.558631,2.36179018 847.101537,2.36179018 847.777608,2.36179018 C848.591967,2.36179018 849,2.16114854 849,1.7547642 C849,1.21575233 848.322221,1.14773821 847.44128,1.14773821 C844.118968,1.14773821 841.542726,1.35008021 840.796657,1.35008021 C839.37281,1.35008021 836.120496,1.14773821 832.605266,1.14773821 C831.589451,1.14773821 830.843382,1.21575233 830.843382,1.7547642 C830.843382,2.16114854 831.113128,2.36179018 831.927487,2.36179018 C832.876718,2.36179018 834.503729,2.36179018 835.5093,2.76817453 C837.136311,3.44321463 837.747507,4.72698107 837.814089,8.84353545 L838.491868,39.1591274 L838.153832,39.1591274 C837.001438,38.0777029 827.860814,28.3567854 823.251236,23.7658325 C813.364543,13.9752005 803.061281,2.97051652 802.246922,2.09313442 C801.084284,0.877382098 800.473088,0 799.728727,0 C799.049241,0 798.846078,0.945396214 798.846078,2.29547642 L798.236589,42.2656721 C798.170006,48.138691 797.896846,50.0974976 796.134963,50.6365095 C795.187438,50.9068656 793.966754,50.9748797 793.085812,50.9748797 C792.408033,50.9748797 792,51.1092076 792,51.5138916 C792,52.1226179 792.609489,52.190632 793.49043,52.190632 C797.017612,52.190632 800.201635,51.9865897 800.812831,51.9865897 C802.110342,51.9865897 804.823165,52.190632 809.22958,52.190632 C810.178812,52.190632 810.788301,52.0546038 810.788301,51.5138916 C810.788301,51.1092076 810.383682,50.9748797 809.635906,50.9748797 C808.553509,50.9748797 807.264534,50.9068656 806.110432,50.5021816 C804.756582,50.0294835 803.873933,48.2730189 803.737353,43.007026 L802.992991,14.6502406" id="Fill-23"></path>
            <path d="M887.58028,53 C891.907816,53 897.047723,52.5266945 899.752219,51.445583 C900.900098,50.9722775 901.172591,50.6334725 901.511505,49.4842596 C902.187629,47.1858336 903,41.3052682 903,40.4948603 C903,39.9534533 902.863753,39.4801478 902.390296,39.4801478 C901.848715,39.4801478 901.714172,39.7508513 901.511505,40.8319627 C901.239011,42.0492772 900.361923,44.0088982 899.212342,45.2943142 C896.506142,48.4031481 892.856434,49.0790556 886.836033,49.0790556 C877.775628,49.0790556 865.535565,41.1026662 865.535565,25.0136845 C865.535565,18.4555092 866.819691,12.0335368 871.75693,7.50308384 C874.732217,4.7994539 878.587999,3.31313845 884.47045,3.31313845 C890.691814,3.31313845 895.966264,5.13825891 898.197304,7.50308384 C899.888466,9.26180533 900.767257,11.6283328 900.833678,13.7224542 C900.833678,14.6707677 900.968221,15.2104722 901.511505,15.2104722 C902.119506,15.2104722 902.255752,14.6707677 902.322173,13.6560553 C902.456716,12.3042403 902.390296,8.58589785 902.52484,6.35387086 C902.659383,3.98904594 902.863753,3.17863797 902.863753,2.63723097 C902.863753,2.23032445 902.59126,1.89322197 901.848715,1.82512046 C899.820343,1.62251847 897.657427,1.0147125 895.08577,0.675907485 C891.975939,0.270703501 889.472406,0 885.281118,0 C875.205675,0 868.781643,2.70362994 863.910824,7.16598137 C857.420372,13.1146482 856,21.0927401 856,25.6878895 C856,32.2460649 857.757582,39.8172502 864.385984,45.6314166 C870.539225,50.9722775 878.315505,53 887.58028,53" id="Fill-24"></path>
            <path d="M916.800678,32.1350233 C916.800678,38.3724962 916.800678,43.7289026 916.461577,46.5770014 C916.193687,48.5423261 915.856281,50.0346752 914.510048,50.3061667 C913.904752,50.4410586 913.095996,50.5776581 912.085473,50.5776581 C911.278412,50.5776581 911.010522,50.7791423 911.010522,51.1189335 C911.010522,51.5936166 911.481873,51.7985158 912.356755,51.7985158 C913.702987,51.7985158 915.454446,51.6619163 917.002444,51.6619163 C918.618262,51.5936166 920.098439,51.5936166 920.841071,51.5936166 C922.858724,51.5936166 924.944198,51.6619163 927.840124,51.7985158 C930.734354,51.865108 934.439037,52 939.488256,52 C942.045081,52 942.652072,52 943.123423,50.2378669 C943.459133,48.8821173 944,44.2718855 944,42.7112366 C944,42.0350693 944,41.4903789 943.459133,41.4903789 C942.987782,41.4903789 942.853837,41.7635779 942.718197,42.5097524 C942.246846,45.287844 941.439785,46.7136008 939.690021,47.5263676 C937.936867,48.3391344 935.110457,48.3391344 933.358999,48.3391344 C926.492196,48.3391344 925.417244,47.3214684 925.283299,42.6446444 C925.215479,40.6776121 925.283299,34.4418467 925.283299,32.1350233 L925.283299,26.7786169 C925.283299,26.3722335 925.35112,26.1007421 925.685134,26.1007421 C927.300952,26.1007421 933.967686,26.1690418 935.246098,26.3056413 C937.736797,26.5754252 938.679499,27.5930912 939.01521,28.9488409 C939.218671,29.8299074 939.218671,30.7109739 939.284795,31.3888488 C939.284795,31.7286399 939.420436,32.0001313 939.891787,32.0001313 C940.497083,32.0001313 940.497083,31.2539568 940.497083,30.7109739 C940.497083,30.2379983 940.698848,27.526499 940.766668,26.1690418 C941.036254,22.711368 941.30584,21.6271097 941.30584,21.2207263 C941.30584,20.8143429 941.102379,20.676036 940.832793,20.676036 C940.497083,20.676036 940.227497,21.0158271 939.756146,21.55881 C939.15085,22.2366848 938.140328,22.441584 936.52451,22.576476 C934.976512,22.711368 927.234828,22.711368 925.752955,22.711368 C925.35112,22.711368 925.283299,22.441584 925.283299,21.9651934 L925.283299,4.81171603 C925.283299,4.3387404 925.417244,4.1355487 925.752955,4.1355487 C927.100883,4.1355487 934.167755,4.27044066 935.313918,4.40533263 C938.679499,4.81171603 939.352616,5.62619032 939.823966,6.84704801 C940.161372,7.6598148 940.227497,8.81237276 940.227497,9.28705589 C940.227497,9.89833848 940.361442,10.2364221 940.832793,10.2364221 C941.30584,10.2364221 941.439785,9.83003875 941.507605,9.49024759 C941.64155,8.67748079 941.775495,5.69449005 941.843315,5.01661522 C942.045081,1.89702502 942.384182,1.08425823 942.384182,0.609575097 C942.384182,0.269783936 942.316362,0 941.97726,0 C941.64155,0 941.238019,0.201484206 940.900613,0.269783936 C940.361442,0.406383398 939.284795,0.541275366 938.006383,0.677874828 C936.727971,0.744467065 923.32838,0.744467065 921.175086,0.744467065 C920.232384,0.744467065 918.686082,0.677874828 916.934623,0.609575097 C915.250985,0.609575097 913.297761,0.541275366 911.481873,0.541275366 C910.469655,0.541275366 910,0.677874828 910,1.15085046 C910,1.62724108 910.403531,1.76042556 911.144467,1.76042556 C912.085473,1.76042556 913.231636,1.82872529 913.770807,1.96532475 C915.991921,2.44000788 916.531093,3.52426611 916.665038,5.83108951 C916.800678,7.99960596 916.800678,9.89833848 916.800678,20.2030604 L916.800678,32.1350233" id="Fill-25"></path>
            <path d="M188.103687,114.223139 C188.103687,106.37265 188.103687,97.7288877 188.201514,94.3536228 C188.201514,93.2588034 188.494993,92.761937 189.373743,92.3661572 C190.156353,91.9686641 193.775927,91.6688309 195.732453,91.6688309 C203.359533,91.6688309 214.50836,92.8630236 223.505007,101.604446 C227.711539,105.677037 232.894647,113.823933 232.894647,126.439199 C232.894647,136.672934 230.939807,145.712476 224.68061,151.178006 C218.812717,156.343704 212.162215,158.331169 202.187304,158.331169 C194.460711,158.331169 190.645485,156.24433 189.373743,154.356238 C188.592819,153.264845 188.39548,149.288201 188.29934,146.805582 C188.201514,144.919203 188.103687,137.270887 188.103687,126.739032 L188.103687,114.223139 Z M175.878771,133.294242 C175.878771,142.433157 175.878771,150.281933 175.38964,154.455611 C174.998334,157.337436 174.509203,159.521935 172.552677,159.919428 C171.673926,160.119888 170.500011,160.316921 169.032616,160.316921 C167.8587,160.316921 167.467395,160.616755 167.467395,161.111908 C167.467395,161.807521 168.152179,162.10564 169.422234,162.10564 C171.380447,162.10564 173.922245,161.906894 176.17225,161.906894 C178.518395,161.807521 180.670574,161.807521 181.746664,161.807521 C184.192321,161.807521 187.614556,162.10564 191.330269,162.40376 C195.045983,162.70188 199.056862,163 202.576922,163 C220.669731,163 230.840294,155.94621 235.340305,151.275666 C240.815205,145.613102 246,136.074981 246,123.560801 C246,111.737094 241.40385,103.490825 236.512534,98.3251274 C225.852839,87 209.520904,87 197.295988,87 C191.428096,87 185.266724,87.2981198 182.235795,87.2981198 C179.498345,87.2981198 173.335287,87 168.152179,87 C166.684784,87 166,87.1987466 166,87.8943595 C166,88.5899725 166.588645,88.7904324 167.663047,88.7904324 C169.032616,88.7904324 170.695663,88.8880923 171.478274,89.0868389 C174.704855,89.7824519 175.487466,91.3724244 175.683119,94.7494026 C175.878771,97.9293476 175.878771,100.710086 175.878771,115.809685 L175.878771,133.294242 Z" id="Fill-26"></path>
            <path d="M272.995557,131.221166 C272.60829,131.221166 272.509378,130.924165 272.60829,130.526457 L281.55064,106.179225 C281.647876,105.783224 281.842348,105.288222 282.134056,105.288222 C282.424087,105.288222 282.522999,105.783224 282.618559,106.179225 L291.368113,130.625457 C291.465349,130.924165 291.368113,131.221166 290.881934,131.221166 L272.995557,131.221166 Z M292.729416,136.167764 C293.215595,136.167764 293.505627,136.364058 293.701775,136.860766 L301.477294,157.84199 C301.963474,159.029993 301.282822,159.920995 300.602171,160.118995 C299.631489,160.217996 299.240868,160.415996 299.240868,161.009998 C299.240868,161.702999 300.409376,161.702999 302.157945,161.802 C309.935141,162 317.031685,162 320.530501,162 C324.126553,162 325,161.802 325,161.009998 C325,160.316996 324.51382,160.217996 323.739286,160.217996 C322.572455,160.217996 321.11224,160.118995 319.655378,159.821995 C317.613424,159.227993 314.79526,157.859059 311.100295,148.984882 C304.880551,133.991465 289.327836,93.6096074 286.994174,88.1680078 C286.021815,85.8910022 285.4384,85 284.563277,85 C283.590918,85 283.009179,86.0890027 281.842348,88.9600098 L257.442842,151.113387 C255.498124,156.061692 253.650642,159.425994 249.179467,160.021702 C248.403257,160.118995 247.041954,160.217996 246.166831,160.217996 C245.388944,160.217996 245,160.415996 245,161.009998 C245,161.802 245.583415,162 246.847482,162 C251.902073,162 257.246694,161.702999 258.317966,161.702999 C261.330602,161.702999 265.511746,162 268.621618,162 C269.689537,162 270.274629,161.802 270.274629,161.009998 C270.274629,160.415996 269.982921,160.217996 268.81609,160.217996 L267.357551,160.217996 C264.344915,160.217996 263.469792,158.930992 263.469792,157.150695 C263.469792,155.962692 263.955971,153.586686 264.926654,151.113387 L270.177393,136.961473 C270.371864,136.364058 270.566336,136.167764 271.050839,136.167764 L292.729416,136.167764 Z" id="Fill-27"></path>
            <path d="M343.631196,133.375739 C343.631196,142.455295 343.631196,150.253091 343.142894,154.39966 C342.849912,157.262767 342.262265,159.433077 340.310738,159.827988 C339.433477,160.027146 338.259867,160.222899 336.796643,160.222899 C335.623032,160.222899 335.23239,160.520785 335.23239,161.012722 C335.23239,161.703817 335.917698,162 337.187285,162 C341.092022,162 347.241268,161.703817 349.487461,161.703817 C352.221956,161.703817 358.372886,162 364.815113,162 C365.889379,162 366.670664,161.703817 366.670664,161.012722 C366.670664,160.520785 366.182361,160.222899 365.109779,160.222899 C363.643187,160.222899 361.496339,160.027146 360.130775,159.827988 C357.200959,159.433077 356.614996,157.262767 356.322014,154.498387 C355.835396,150.253091 355.835396,142.455295 355.835396,133.375739 L355.835396,92.9092457 L368.135572,93.2071313 C376.825675,93.4028848 379.460826,96.1672639 379.656147,98.7341874 L379.753808,99.8201935 C379.849784,101.301111 380.046789,101.79475 380.828074,101.79475 C381.414037,101.79475 381.609358,101.200681 381.707018,100.213403 C381.707018,97.6464791 382,90.8359613 382,88.7643791 C382,87.2834617 381.902339,86.692797 381.218716,86.692797 C380.828074,86.692797 380.046789,86.8902526 378.583565,87.1864361 C377.116973,87.3821896 374.970125,87.6783731 371.846672,87.6783731 L333.184887,87.6783731 C329.962089,87.6783731 326.249305,87.4809174 323.420517,87.1864361 C320.980687,86.9872783 320.002398,86 319.221114,86 C318.636834,86 318.342169,86.5940692 318.049187,87.8758287 C317.85555,88.6673535 316,97.6464791 316,99.2278266 C316,100.310428 316.195321,100.80577 316.878945,100.80577 C317.464908,100.80577 317.75789,100.410858 317.953211,99.6210357 C318.148532,98.831213 318.636834,97.6464791 319.611756,96.1672639 C321.076664,93.996954 323.420517,93.5033148 329.08146,93.304157 L343.631196,92.9092457 L343.631196,133.375739" id="Fill-28"></path>
            <path d="M399.994971,131.221166 C399.604359,131.221166 399.508801,130.924165 399.604359,130.526457 L408.548198,106.179225 C408.645432,105.783224 408.839899,105.288222 409.131601,105.288222 C409.423303,105.288222 409.51886,105.783224 409.61777,106.179225 L418.365465,130.625457 C418.462699,130.924165 418.365465,131.221166 417.880972,131.221166 L399.994971,131.221166 Z M419.726739,136.167764 C420.212909,136.167764 420.50461,136.364058 420.697402,136.860766 L428.474434,157.84199 C428.96228,159.029993 428.279966,159.920995 427.601006,160.118995 C426.628667,160.217996 426.239732,160.415996 426.239732,161.009998 C426.239732,161.702999 427.404862,161.702999 429.155071,161.802 C436.932104,162 444.026823,162 447.527242,162 C451.123219,162 452,161.802 452,161.009998 C452,160.316996 451.513831,160.217996 450.734283,160.217996 C449.569153,160.217996 448.110645,160.118995 446.652137,159.821995 C444.610226,159.227993 441.792121,157.859059 438.097234,148.984882 C431.875943,133.991465 416.325231,93.6096074 413.991618,88.1680078 C413.019279,85.8910022 412.435876,85 411.560771,85 C410.590109,85 410.006706,86.0890027 408.839899,88.9600098 L384.440905,151.113387 C382.496228,156.061692 380.650461,159.425994 376.17938,160.021702 C375.401509,160.118995 374.038558,160.217996 373.16513,160.217996 C372.388935,160.217996 372,160.415996 372,161.009998 C372,161.802 372.581727,162 373.845767,162 C378.901928,162 384.244761,161.702999 385.31601,161.702999 C388.33026,161.702999 392.50964,162 395.619447,162 C396.689019,162 397.274099,161.802 397.274099,161.009998 C397.274099,160.415996 396.982397,160.217996 395.813915,160.217996 L394.355407,160.217996 C391.34451,160.217996 390.467728,158.930992 390.467728,157.150695 C390.467728,155.962692 390.953898,153.586686 391.926236,151.113387 L397.175189,136.961473 C397.369656,136.364058 397.565801,136.167764 398.050293,136.167764 L419.726739,136.167764 Z" id="Fill-29"></path>
            <path d="M501.18381,163 C506.382184,163 511.874902,162.117512 516.780625,158.973757 C523.843174,154.358059 526,147.582723 526,141.884665 C526,132.555028 521.781079,125.777998 509.914305,116.839636 L507.1671,114.77824 C499.025292,108.590664 496.772043,105.153875 496.772043,100.634726 C496.772043,94.7418773 501.18381,90.5174553 508.440896,90.5174553 C514.818336,90.5174553 517.661963,93.4664203 519.13368,95.3313315 C521.192392,97.8856332 521.682964,100.929453 521.682964,101.813634 C521.682964,102.992543 521.977307,103.580303 522.664109,103.580303 C523.449024,103.580303 523.743368,102.794364 523.743368,100.634726 C523.743368,92.9752084 524.135825,90.1261796 524.135825,88.8507226 C524.135825,88.1613322 523.645253,87.8666051 522.763915,87.6701203 C520.212939,86.9824237 516.093823,86 509.718076,86 C496.081858,86 487.060404,93.7594536 487.060404,104.562727 C487.060404,112.520359 490.788753,119.393937 501.574576,127.839394 L506.087841,131.376119 C514.229649,137.76018 515.699674,142.277635 515.699674,147.091511 C515.699674,152.294969 511.38433,158.28606 502.557412,158.28606 C496.477699,158.28606 490.688947,155.63521 488.53212,148.366968 C488.041548,146.696848 487.64909,144.635452 487.64909,143.359995 C487.64909,142.572362 487.549284,141.688181 486.667946,141.688181 C485.88303,141.688181 485.586995,142.768847 485.490572,144.242482 C485.392458,145.812666 485,151.705515 485,157.108845 C485,159.268484 485.292652,159.759696 486.862483,160.445698 C491.081404,162.313997 495.494863,163 501.18381,163" id="Fill-30"></path>
            <path d="M583.692747,163 C589.954639,163 597.389265,162.313997 601.304003,160.740425 C602.966079,160.054423 603.35924,159.563211 603.846894,157.894784 C604.827266,154.554544 606,146.009151 606,144.831936 C606,144.045997 605.804263,143.359995 605.120871,143.359995 C604.336237,143.359995 604.1405,143.75127 603.846894,145.321454 C603.455421,147.091511 602.184818,149.937152 600.519368,151.803757 C596.608005,156.322906 591.32311,157.303636 582.617881,157.303636 C569.503511,157.303636 551.796074,145.714424 551.796074,122.339515 C551.796074,112.811698 553.655575,103.483755 560.798283,96.9032095 C565.102807,92.9752084 570.681307,90.8121824 579.194174,90.8121824 C588.193007,90.8121824 595.825058,93.4664203 599.053029,96.9032095 C601.498052,99.4575112 602.772029,102.8943 602.869898,105.93812 C602.869898,107.311819 603.063947,108.099452 603.846894,108.099452 C604.72771,108.099452 604.923447,107.311819 605.021316,105.839878 C605.217053,103.87503 605.120871,98.4750874 605.314921,95.234783 C605.510658,91.7963 605.804263,90.6173915 605.804263,89.8314525 C605.804263,89.2419983 605.414477,88.7507864 604.336237,88.6542379 C601.401871,88.3595108 598.271769,87.4736356 594.552768,86.9824237 C590.052508,86.3946633 586.433063,86 580.366907,86 C565.787886,86 556.492072,89.9296949 549.448919,96.4119976 C540.055237,105.053939 538,116.643151 538,123.321938 C538,132.849755 540.544579,143.849513 550.132311,152.294969 C559.036651,160.054423 570.288146,163 583.692747,163" id="Fill-31"></path>
            <path d="M628.717177,132.612738 C628.717177,142.10667 628.717177,149.839903 628.221688,153.95214 C627.926104,156.791541 627.331518,158.45433 625.349565,158.845971 C624.457686,159.04348 623.270223,159.237613 621.782049,159.237613 C620.596295,159.237613 620.198195,159.533032 620.198195,160.020896 C620.198195,160.706269 620.89017,161 622.17844,161 C626.144055,161 632.38379,160.706269 634.661327,160.706269 C637.335255,160.706269 643.578408,161 650.117145,161 C651.207219,161 652,160.706269 652,160.020896 C652,159.533032 651.502803,159.237613 650.414438,159.237613 C648.929681,159.237613 646.747824,159.04348 645.362166,158.845971 C642.389236,158.45433 641.695552,156.691943 641.398259,154.05005 C641.001869,149.839903 641.001869,142.10667 641.001869,132.612738 L641.001869,115.385574 C641.001869,100.508258 641.001869,97.7684552 641.200064,94.6353226 C641.398259,91.2101469 642.191041,89.5456702 644.866677,89.0561183 C646.055849,88.8602975 646.84863,88.7640752 647.837898,88.7640752 C648.828875,88.7640752 649.42517,88.5665663 649.42517,87.7832831 C649.42517,87.1958208 648.63068,87 647.34241,87 C643.578408,87 637.733355,87.2937312 635.255913,87.2937312 C632.38379,87.2937312 626.144055,87 622.378344,87 C620.792781,87 620,87.1958208 620,87.7832831 C620,88.5665663 620.596295,88.7640752 621.585562,88.7640752 C622.774734,88.7640752 624.061295,88.8602975 625.15137,89.1540287 C627.331518,89.6435806 628.320786,91.3080573 628.518981,94.6353226 C628.717177,97.7684552 628.717177,100.508258 628.717177,115.385574 L628.717177,132.612738" id="Fill-32"></path>
            <path d="M672.001025,132.965755 C672.001025,142.081038 672.001025,149.909518 671.50584,154.072403 C671.109692,156.946777 670.614507,159.125627 668.633768,159.522092 C667.742436,159.722034 666.5557,159.918557 665.070145,159.918557 C663.88341,159.918557 663.487262,160.217615 663.487262,160.711488 C663.487262,161.405302 664.178813,161.702651 665.464586,161.702651 C667.447032,161.702651 670.020285,161.504418 672.296428,161.504418 C674.673315,161.405302 676.852128,161.405302 677.941534,161.405302 C680.910935,161.405302 683.981081,161.504418 688.237962,161.702651 C692.494843,161.800058 697.940168,162 705.366232,162 C709.129636,162 710.019261,162 710.71252,159.424685 C711.207704,157.442358 712,150.702449 712,148.424482 C712,147.433319 712,146.640389 711.207704,146.640389 C710.514446,146.640389 710.316372,147.038563 710.120005,148.125424 C709.425039,152.187485 708.236596,154.270636 705.663343,155.458323 C703.090089,156.649428 698.932245,156.649428 696.357284,156.649428 C686.25893,156.649428 684.672632,155.162683 684.476265,148.325366 C684.377228,145.450993 684.476265,136.335709 684.476265,132.965755 L684.476265,125.138983 C684.476265,124.544285 684.575302,124.14782 685.070487,124.14782 C687.445666,124.14782 697.248617,124.246936 699.128611,124.445169 C702.792979,124.841634 704.177788,126.328379 704.672973,128.310705 C704.970084,129.597509 704.970084,130.88773 705.069121,131.877184 C705.069121,132.372765 705.268902,132.767522 705.960454,132.767522 C706.851786,132.767522 706.851786,131.677242 706.851786,130.88773 C706.851786,130.192207 707.147189,126.227554 707.247934,124.246936 C707.644082,119.193713 708.040229,117.607852 708.040229,117.014863 C708.040229,116.418456 707.741411,116.221932 707.346971,116.221932 C706.851786,116.221932 706.455638,116.715805 705.764087,117.508736 C704.871047,118.499899 703.385493,118.797248 701.010314,118.99548 C698.732464,119.193713 687.348337,119.193713 685.167816,119.193713 C684.575302,119.193713 684.476265,118.797248 684.476265,118.103434 L684.476265,93.0338408 C684.476265,92.3400265 684.672632,92.0443865 685.167816,92.0443865 C687.150263,92.0443865 697.54402,92.2409102 699.229356,92.4408518 C704.177788,93.0338408 705.168158,94.2232366 705.863124,96.0056214 C706.358309,97.1967261 706.455638,98.8799946 706.455638,99.5738088 C706.455638,100.465856 706.653712,100.963146 707.346971,100.963146 C708.040229,100.963146 708.236596,100.366739 708.33734,99.8711578 C708.533707,98.6834709 708.733488,94.3240618 708.832525,93.3311897 C709.129636,88.773548 709.624821,87.5841522 709.624821,86.890338 C709.624821,86.3947564 709.525784,86 709.030599,86 C708.533707,86 707.939485,86.297349 707.4443,86.3947564 C706.653712,86.5946979 705.069121,86.7912216 703.189126,86.9894543 C701.307424,87.0885706 681.605901,87.0885706 678.436719,87.0885706 C677.051909,87.0885706 674.774059,86.9894543 672.199098,86.890338 C669.723175,86.890338 666.852811,86.7912216 664.178813,86.7912216 C662.693259,86.7912216 662,86.9894543 662,87.6832685 C662,88.3770827 662.595929,88.5770243 663.683628,88.5770243 C665.070145,88.5770243 666.753774,88.6744317 667.546069,88.8726643 C670.812581,89.5664785 671.604877,91.1523396 671.802951,94.5205855 C672.001025,97.6923077 672.001025,100.465856 672.001025,115.526409 L672.001025,132.965755" id="Fill-33"></path>
            <path d="M738.007897,106.283439 L738.304119,106.283439 C740.08145,108.147706 751.036551,120.409241 761.780551,131.002746 C772.046171,141.105655 784.681565,153.954214 790.883497,159.841374 C791.969644,160.918996 793.154531,162 794.238975,162 C795.131046,162 795.524306,161.116926 795.524306,158.9583 L796.610452,97.0619123 C796.707491,91.5706125 797.497416,89.5101063 800.26045,88.7251516 C801.44704,88.4324853 802.235263,88.4324853 803.224371,88.4324853 C804.409259,88.4324853 805,88.1381273 805,87.5477195 C805,86.7627647 804.012594,86.6646454 802.728966,86.6646454 C797.892378,86.6646454 794.141937,86.9590034 793.05579,86.9590034 C790.982237,86.9590034 786.246093,86.6646454 781.126902,86.6646454 C779.647496,86.6646454 778.563051,86.7627647 778.563051,87.5477195 C778.563051,88.1381273 778.958014,88.4324853 780.141199,88.4324853 C781.521865,88.4324853 783.89164,88.4324853 785.355725,89.0195096 C787.725499,89.9990113 788.614165,91.8649706 788.712906,97.846867 L789.700312,141.888918 L789.206609,141.888918 C787.528018,140.322392 774.216762,126.19659 767.505805,119.526167 C753.111806,105.302245 738.106637,89.3138677 736.92175,88.0383162 C735.227838,86.272168 734.339172,85 733.253025,85 C732.265619,85 731.969397,86.3719791 731.969397,88.3326742 L731.082434,146.402408 C730.983694,154.937099 730.588731,157.780868 728.021475,158.567515 C726.639107,158.9583 724.861775,159.05642 723.57985,159.05642 C722.590741,159.05642 722,159.252658 722,159.841374 C722,160.722757 722.886963,160.822568 724.172294,160.822568 C729.305103,160.822568 733.94421,160.52821 734.832875,160.52821 C736.724269,160.52821 740.672191,160.822568 747.090331,160.822568 C748.470997,160.822568 749.359663,160.626329 749.359663,159.841374 C749.359663,159.252658 748.767219,159.05642 747.682775,159.05642 C746.101222,159.05642 744.226853,158.9583 742.548263,158.371276 C740.575153,157.682749 739.289822,155.133338 739.094044,147.481721 L738.007897,106.283439" id="Fill-34"></path>
            <path d="M860.692193,163 C866.954241,163 874.389052,162.313997 878.303886,160.740425 C879.966003,160.054423 880.357487,159.563211 880.846841,157.894784 C881.82555,154.554544 883,146.009151 883,144.831936 C883,144.045997 882.804258,143.359995 882.119162,143.359995 C881.336195,143.359995 881.140454,143.75127 880.846841,145.321454 C880.455358,147.091511 879.184724,149.937152 877.520919,151.803757 C873.606085,156.322906 868.322746,157.303636 859.615614,157.303636 C846.50598,157.303636 828.794729,145.714424 828.794729,122.339515 C828.794729,112.811698 830.654276,103.483755 837.797161,96.9032095 C842.100104,92.9752084 847.678743,90.8121824 856.191821,90.8121824 C865.192565,90.8121824 872.823118,93.4664203 876.051169,96.9032095 C878.499628,99.4575112 879.771949,102.8943 879.868132,105.93812 C879.868132,107.311819 880.063874,108.099452 880.846841,108.099452 C881.727679,108.099452 881.923421,107.311819 882.022979,105.839878 C882.217033,103.87503 882.119162,98.4750874 882.314904,95.234783 C882.510646,91.7963 882.804258,90.6173915 882.804258,89.8314525 C882.804258,89.2419983 882.412775,88.7507864 881.336195,88.6542379 C878.401757,88.3595108 875.271577,87.4736356 871.552484,86.9824237 C867.050424,86.3946633 863.43089,86 857.364584,86 C842.788575,86 833.492531,89.9296949 826.447516,96.4119976 C817.055288,105.053939 815,116.643151 815,123.321938 C815,132.849755 817.544642,143.849513 827.130925,152.294969 C836.035486,160.054423 847.28726,163 860.692193,163" id="Fill-35"></path>
            <path d="M904.001025,132.965755 C904.001025,142.081038 904.001025,149.909518 903.50584,154.072403 C903.107984,156.946777 902.6128,159.125627 900.633768,159.522092 C899.742436,159.722034 898.553992,159.918557 897.068438,159.918557 C895.881702,159.918557 895.483847,160.217615 895.483847,160.711488 C895.483847,161.405302 896.178813,161.702651 897.466293,161.702651 C899.445325,161.702651 902.020285,161.504418 904.298135,161.504418 C906.673315,161.405302 908.852128,161.405302 909.938119,161.405302 C912.910935,161.405302 915.977665,161.504418 920.237962,161.702651 C924.494843,161.800058 929.940168,162 937.366232,162 C941.127928,162 942.017553,162 942.71252,159.424685 C943.207704,157.442358 944,150.702449 944,148.424482 C944,147.433319 944,146.640389 943.207704,146.640389 C942.514446,146.640389 942.314664,147.038563 942.118298,148.125424 C941.425039,152.187485 940.236596,154.270636 937.663343,155.458323 C935.088382,156.649428 930.92883,156.649428 928.353869,156.649428 C918.255515,156.649428 916.672632,155.162683 916.474558,148.325366 C916.375521,145.450993 916.474558,136.335709 916.474558,132.965755 L916.474558,125.138983 C916.474558,124.544285 916.575302,124.14782 917.068779,124.14782 C919.443959,124.14782 929.246909,124.246936 931.128611,124.445169 C934.791271,124.841634 936.179496,126.328379 936.672973,128.310705 C936.968376,129.597509 936.968376,130.88773 937.069121,131.877184 C937.069121,132.372765 937.265487,132.767522 937.958746,132.767522 C938.850079,132.767522 938.850079,131.677242 938.850079,130.88773 C938.850079,130.192207 939.147189,126.227554 939.246226,124.246936 C939.644082,119.193713 940.038522,117.607852 940.038522,117.014863 C940.038522,116.418456 939.741411,116.221932 939.346971,116.221932 C938.850079,116.221932 938.455638,116.715805 937.760672,117.508736 C936.871047,118.499899 935.385493,118.797248 933.010314,118.99548 C930.732464,119.193713 919.344922,119.193713 917.169524,119.193713 C916.575302,119.193713 916.474558,118.797248 916.474558,118.103434 L916.474558,93.0338408 C916.474558,92.3400265 916.672632,92.0443865 917.169524,92.0443865 C919.146848,92.0443865 929.545728,92.2409102 931.225941,92.4408518 C936.179496,93.0338408 937.168158,94.2232366 937.861417,96.0056214 C938.354894,97.1967261 938.455638,98.8799946 938.455638,99.5738088 C938.455638,100.465856 938.652005,100.963146 939.346971,100.963146 C940.038522,100.963146 940.236596,100.366739 940.335633,99.8711578 C940.533707,98.6834709 940.733488,94.3240618 940.830818,93.3311897 C941.127928,88.773548 941.623113,87.5841522 941.623113,86.890338 C941.623113,86.3947564 941.522369,86 941.027184,86 C940.533707,86 939.941193,86.297349 939.446008,86.3947564 C938.652005,86.5946979 937.069121,86.7912216 935.185711,86.9894543 C933.307424,87.0885706 913.604194,87.0885706 910.435011,87.0885706 C909.048494,87.0885706 906.770644,86.9894543 904.197391,86.890338 C901.723175,86.890338 898.851103,86.7912216 896.178813,86.7912216 C894.693259,86.7912216 894,86.9894543 894,87.6832685 C894,88.3770827 894.594222,88.5770243 895.683628,88.5770243 C897.068438,88.5770243 898.753774,88.6744317 899.542654,88.8726643 C902.810874,89.5664785 903.603169,91.1523396 903.802951,94.5205855 C904.001025,97.6923077 904.001025,100.465856 904.001025,115.526409 L904.001025,132.965755" id="Fill-36"></path>
            <path d="M16.4466284,112.011952 C16.2190459,112.011952 16.1617288,111.836084 16.2190459,111.605578 L21.4736729,97.3756403 C21.53099,97.1468412 21.6439383,96.8582812 21.8158895,96.8582812 C21.9861549,96.8582812 22.043472,97.1468412 22.1007891,97.3756403 L27.2407819,111.665339 C27.298099,111.836084 27.2407819,112.011952 26.9558824,112.011952 L16.4466284,112.011952 Z M28.0398494,114.902675 C28.3264347,114.902675 28.4967001,115.017075 28.6113343,115.307342 L33.1798422,127.57029 C33.4664275,128.263517 33.0668938,128.784291 32.6656743,128.900398 C32.0958752,128.960159 31.8666069,129.074559 31.8666069,129.421172 C31.8666069,129.825839 32.552726,129.825839 33.5793759,129.8856 C38.1478838,130 42.316858,130 44.3735294,130 C46.4858321,130 47,129.8856 47,129.421172 C47,129.016505 46.7151004,128.960159 46.2582496,128.960159 C45.5721306,128.960159 44.7157461,128.900398 43.8593615,128.727945 C42.6590746,128.381332 41.0036227,127.580535 38.8340029,122.394991 C35.1791966,113.63062 26.0421808,90.0318725 24.6716284,86.8508822 C24.1001435,85.520774 23.7579268,85 23.243759,85 C22.672274,85 22.3300574,85.636881 21.6439383,87.3136027 L7.30961263,123.636312 C6.16832855,126.528742 5.08267575,128.495731 2.45620516,128.842345 C1.99935438,128.900398 1.20028694,128.960159 0.686119082,128.960159 C0.229268293,128.960159 0,129.074559 0,129.421172 C0,129.8856 0.343902439,130 1.0856528,130 C4.05602582,130 7.19497848,129.825839 7.82546628,129.825839 C9.59555237,129.825839 12.0500717,130 13.8774749,130 C14.5062769,130 14.8484935,129.8856 14.8484935,129.421172 C14.8484935,129.074559 14.6765423,128.960159 13.992109,128.960159 L13.1340387,128.960159 C11.3656385,128.960159 10.8514706,128.205464 10.8514706,127.165623 C10.8514706,126.470689 11.1363702,125.084234 11.7078551,123.636312 L14.7911765,115.367103 C14.9058106,115.017075 15.0204448,114.902675 15.3053443,114.902675 L28.0398494,114.902675 Z" id="Fill-37"></path>
            <path d="M55.2582502,97.4396435 L55.4284511,97.4396435 C56.4563966,98.5294449 62.7925853,105.694382 69.0057576,111.884589 C74.9425642,117.788809 82.2494032,125.298962 85.8371015,128.739282 C86.4639798,129.370487 87.1498385,130 87.7767168,130 C88.2906895,130 88.5198708,129.483867 88.5198708,128.22315 L89.1467491,92.0515569 C89.2040444,88.8396886 89.6607218,87.6381995 91.2582502,87.1779106 C91.9457941,87.0069946 92.4007864,87.0069946 92.9720545,87.0069946 C93.6562281,87.0069946 94,86.832694 94,86.4891697 C94,86.0322653 93.4287319,85.9747292 92.687263,85.9747292 C89.8899031,85.9747292 87.7211066,86.1456453 87.0925432,86.1456453 C85.8927117,86.1456453 83.1526471,85.9747292 80.1935121,85.9747292 C79.3374526,85.9747292 78.7105744,86.0322653 78.7105744,86.4891697 C78.7105744,86.832694 78.9380705,87.0069946 79.6239292,87.0069946 C80.4226934,87.0069946 81.7927257,87.0069946 82.6403595,87.350519 C84.0103918,87.9241877 84.5226794,89.0122969 84.5799747,92.5101534 L85.1512428,118.249097 L84.8664513,118.249097 C83.8958012,117.331904 76.1980059,109.077166 72.3170903,105.178249 C63.9924168,96.8659747 55.3138604,87.5231273 54.6296868,86.7768502 C53.6489257,85.7462771 53.134953,85 52.5080747,85 C51.9368066,85 51.7649207,85.8021209 51.7649207,86.9494585 L51.2526331,120.885605 C51.1953377,125.872631 50.9661564,127.534409 49.4815335,127.994698 C48.6844544,128.22315 47.6548238,128.282378 46.9133549,128.282378 C46.3420868,128.282378 46,128.395758 46,128.739282 C46,129.257107 46.5139728,129.312951 47.2571268,129.312951 C50.2246875,129.312951 52.9074568,129.140343 53.4214296,129.140343 C54.5150962,129.140343 56.7984834,129.312951 60.5091981,129.312951 C61.3079624,129.312951 61.8219351,129.199571 61.8219351,128.739282 C61.8219351,128.395758 61.4798483,128.282378 60.8512849,128.282378 C59.9379301,128.282378 58.8543744,128.22315 57.8837242,127.877933 C56.741188,127.478565 55.9997191,125.987703 55.8851285,121.515117 L55.2582502,97.4396435" id="Fill-38"></path>
            <path d="M113.983941,101.759522 C113.983941,97.2160525 113.983941,92.2124638 114.04161,90.256531 C114.04161,89.6232298 114.214616,89.3345939 114.731938,89.105383 C115.191591,88.8744742 117.316853,88.7029905 118.465139,88.7029905 C122.948033,88.7029905 129.49852,89.3940189 134.783688,94.4553347 C137.254962,96.81366 140.299531,101.528613 140.299531,108.834497 C140.299531,114.758325 139.151245,119.992823 135.474017,123.154235 C132.025767,126.145861 128.117864,127.297009 122.257705,127.297009 C117.718838,127.297009 115.478239,126.088134 114.731938,124.994713 C114.270588,124.36311 114.156947,122.062512 114.099278,120.624426 C114.04161,119.532703 113.983941,115.102991 113.983941,109.005981 L113.983941,101.759522 Z M106.80249,112.80409 C106.80249,118.094617 106.80249,122.638086 106.515843,125.052441 C106.285168,126.723133 105.99852,127.98634 104.848538,128.217249 C104.331216,128.331005 103.642584,128.448157 102.779249,128.448157 C102.090617,128.448157 101.861638,128.619641 101.861638,128.906579 C101.861638,129.308972 102.261927,129.482153 103.009924,129.482153 C104.15821,129.482153 105.652508,129.368397 106.975496,129.368397 C108.354457,129.308972 109.61808,129.308972 110.249044,129.308972 C111.685673,129.308972 113.697293,129.482153 115.880224,129.653637 C118.063154,129.826818 120.419091,130 122.48838,130 C133.11808,130 139.093576,125.914953 141.73616,123.21366 C144.953735,119.935096 148,114.41366 148,107.165503 C148,100.321435 145.299747,95.5487555 142.426489,92.5571291 C136.162649,86 126.567593,86 119.384446,86 C115.937892,86 112.318333,86.1714837 110.537387,86.1714837 C108.927752,86.1714837 105.308192,86 102.261927,86 C101.400289,86 101,86.1154544 101,86.5161489 C101,86.9202392 101.344316,87.0356936 101.97528,87.0356936 C102.779249,87.0356936 103.757921,87.0917229 104.217575,87.2071773 C106.112162,87.6112676 106.571815,88.529809 106.687153,90.4857418 C106.80249,92.3262203 106.80249,93.9357901 106.80249,102.679761 L106.80249,112.80409 Z" id="Fill-39"></path>
        </g>
    </g>
</svg>